<svg version="1.1" viewBox="0.0 0.0 818.6745406824147 332.4146981627297" fill="none" stroke="none" stroke-linecap="square" stroke-miterlimit="10" xmlns:xlink="http://www.w3.org/1999/xlink" xmlns="http://www.w3.org/2000/svg"><clipPath id="p.0"><path d="m0 0l818.67456 0l0 332.4147l-818.67456 0l0 -332.4147z" clip-rule="nonzero"/></clipPath><g clip-path="url(#p.0)"><path fill="#000000" fill-opacity="0.0" d="m0 0l818.67456 0l0 332.4147l-818.67456 0z" fill-rule="evenodd"/><path fill="#000000" fill-opacity="0.0" d="m72.0 0l0 332.6929" fill-rule="evenodd"/><path stroke="#ffffff" stroke-width="4.0" stroke-linejoin="round" stroke-linecap="butt" d="m72.0 0l0 332.6929" fill-rule="evenodd"/><path fill="#000000" fill-opacity="0.0" d="m71.64042 330.98163l-72.37795 0.72439575" fill-rule="evenodd"/><path stroke="#ffffff" stroke-width="4.0" stroke-linejoin="round" stroke-linecap="butt" d="m71.64042 330.98163l-72.37795 0.72439575" fill-rule="evenodd"/><path fill="#000000" fill-opacity="0.0" d="m1.4278215 330.27298l0 -68.787415" fill-rule="evenodd"/><path stroke="#ffffff" stroke-width="4.0" stroke-linejoin="round" stroke-linecap="butt" d="m1.4278215 330.27298l0 -68.787415" fill-rule="evenodd"/><path fill="#000000" fill-opacity="0.0" d="m1.4317585 262.82678l815.81104 0" fill-rule="evenodd"/><path stroke="#ffffff" stroke-width="4.0" stroke-linejoin="round" stroke-linecap="butt" d="m1.4317585 262.82678l815.81104 0" fill-rule="evenodd"/><path fill="#000000" fill-opacity="0.0" d="m817.4383 261.18634l-0.18896484 69.38583" fill-rule="evenodd"/><path stroke="#ffffff" stroke-width="4.0" stroke-linejoin="round" stroke-linecap="butt" d="m817.4383 261.18634l-0.18896484 69.38583" fill-rule="evenodd"/><path fill="#000000" fill-opacity="0.0" d="m819.0525 330.98163l-72.37793 0.72439575" fill-rule="evenodd"/><path stroke="#ffffff" stroke-width="4.0" stroke-linejoin="round" stroke-linecap="butt" d="m819.0525 330.98163l-72.37793 0.72439575" fill-rule="evenodd"/><path fill="#000000" fill-opacity="0.0" d="m746.67456 -0.6929134l0 332.6929" fill-rule="evenodd"/><path stroke="#ffffff" stroke-width="4.0" stroke-linejoin="round" stroke-linecap="butt" d="m746.67456 -0.6929134l0 332.6929" fill-rule="evenodd"/><path fill="#000000" fill-opacity="0.0" d="m819.0525 0l-72.37793 0.72440946" fill-rule="evenodd"/><path stroke="#ffffff" stroke-width="4.0" stroke-linejoin="round" stroke-linecap="butt" d="m819.0525 0l-72.37793 0.72440946" fill-rule="evenodd"/><path fill="#000000" fill-opacity="0.0" d="m817.4383 0.72440946l-0.18896484 69.385826" fill-rule="evenodd"/><path stroke="#ffffff" stroke-width="4.0" stroke-linejoin="round" stroke-linecap="butt" d="m817.4383 0.72440946l-0.18896484 69.385826" fill-rule="evenodd"/><path fill="#000000" fill-opacity="0.0" d="m819.5748 68.77428l-818.86615 0.69291687" fill-rule="evenodd"/><path stroke="#ffffff" stroke-width="4.0" stroke-linejoin="round" stroke-linecap="butt" d="m819.5748 68.77428l-818.86615 0.69291687" fill-rule="evenodd"/><path fill="#000000" fill-opacity="0.0" d="m0.71653545 71.4462l0 -72.18898" fill-rule="evenodd"/><path stroke="#ffffff" stroke-width="4.0" stroke-linejoin="round" stroke-linecap="butt" d="m0.71653545 71.4462l0 -72.18898" fill-rule="evenodd"/><path fill="#000000" fill-opacity="0.0" d="m1.4330709 0.72440946l70.92914 0.503937" fill-rule="evenodd"/><path stroke="#ffffff" stroke-width="4.0" stroke-linejoin="round" stroke-linecap="butt" d="m1.4330709 0.72440946l70.92914 0.503937" fill-rule="evenodd"/></g></svg>