<svg version="1.1" viewBox="0.0 0.0 959.9632545931759 386.73490813648294" fill="none" stroke="none" stroke-linecap="square" stroke-miterlimit="10" xmlns:xlink="http://www.w3.org/1999/xlink" xmlns="http://www.w3.org/2000/svg">

<clipPath id="p.0">
<path d="m0 0l959.96326 0l0 386.7349l-959.96326 0l0 -386.7349z" clip-rule="nonzero"/></clipPath>
<g clip-path="url(#p.0)">
<path fill="#000000" fill-opacity="0.0" d="m0 0l959.96326 0l0 386.7349l-959.96326 0z" fill-rule="evenodd"/>
<path fill="#000000" fill-opacity="0.0" d="m88.0 2.929134l0 381.07086" fill-rule="evenodd"/>
<path stroke="red" stroke-width="4.0" stroke-linejoin="round" stroke-linecap="butt" d="m88.0 2.929134l0 381.07086" fill-rule="evenodd"/>
<path fill="#000000" fill-opacity="0.0" d="m88.0 384.0l-86.614174 0.4409485" fill-rule="evenodd"/>
<path stroke="cyan" stroke-width="4.0" stroke-linejoin="round" stroke-linecap="butt" d="m88.0 384.0l-86.614174 0.4409485" fill-rule="evenodd"/>
<path fill="#000000" fill-opacity="0.0" d="m1.4105313 387.2991l0 -88.28345" fill-rule="evenodd"/>
<path stroke="yellow" stroke-width="4.0" stroke-linejoin="round" stroke-linecap="butt" d="m1.4105313 387.2991l0 -88.28345" fill-rule="evenodd"/>
<path fill="#000000" fill-opacity="0.0" d="m1.4105313 299.02054l958.5512 0" fill-rule="evenodd"/>
<path stroke="lightgreen" stroke-width="4.0" stroke-linejoin="round" stroke-linecap="butt" d="m1.4105313 299.02054l958.5512 0" fill-rule="evenodd"/>
<path fill="#000000" fill-opacity="0.0" d="m1.4105313 88.6664l958.5512 0" fill-rule="evenodd"/>
<path stroke="orange" stroke-width="4.0" stroke-linejoin="round" stroke-linecap="butt" d="m1.4105313 88.6664l958.5512 0" fill-rule="evenodd"/>
<path fill="#000000" fill-opacity="0.0" d="m88.0 0.15748031l-87.08662 -0.15748031" fill-rule="evenodd"/>
<path stroke="purple" stroke-width="4.0" stroke-linejoin="round" stroke-linecap="butt" d="m88.0 0.15748031l-87.08662 -0.15748031" fill-rule="evenodd"/>
<path fill="#000000" fill-opacity="0.0" d="m0 88.28346l0 -88.28346" fill-rule="evenodd"/>
<path stroke="#ffffff" stroke-width="4.0" stroke-linejoin="round" stroke-linecap="butt" d="m0 88.28346l0 -88.28346" fill-rule="evenodd"/>
<path fill="#000000" fill-opacity="0.0" d="m960.0 88.0l0 -88.0" fill-rule="evenodd"/>
<path stroke="#ffffff" stroke-width="4.0" stroke-linejoin="round" stroke-linecap="butt" d="m960.0 88.0l0 -88.0" fill-rule="evenodd"/>
<path fill="#000000" fill-opacity="0.0" d="m960.0 0.15748031l-87.08661 -0.15748031" fill-rule="evenodd"/>
<path stroke="#ffffff" stroke-width="4.0" stroke-linejoin="round" stroke-linecap="butt" d="m960.0 0.15748031l-87.08661 -0.15748031" fill-rule="evenodd"/>
<path fill="#000000" fill-opacity="0.0" d="m872.0 2.929134l0 381.07086" fill-rule="evenodd"/>
<path stroke="#ffffff" stroke-width="4.0" stroke-linejoin="round" stroke-linecap="butt" d="m872.0 2.929134l0 381.07086" fill-rule="evenodd"/>
<path fill="#000000" fill-opacity="0.0" d="m958.6142 383.55905l-86.6142 0.4409485" fill-rule="evenodd"/>
<path stroke="#ffffff" stroke-width="4.0" stroke-linejoin="round" stroke-linecap="butt" d="m958.6142 383.55905l-86.6142 0.4409485" fill-rule="evenodd"/>
<path fill="#000000" fill-opacity="0.0" d="m960.0 384.28348l0 -88.28348" fill-rule="evenodd"/>
<path stroke="#ffffff" stroke-width="4.0" stroke-linejoin="round" stroke-linecap="butt" d="m960.0 384.28348l0 -88.28348" fill-rule="evenodd"/>
</g>
</svg>